name C:\Users\r0593348\3dpredictsim\Results\MidTarsalJoint\Fal_s1_bCst_PF_Natali2010_ls150_MT_k200_MTP_T5_d00_ig24.mot
datacolumns 128
datarows 4
range 0.58425876 0.61931429
endheader
time	pelvis_tilt	pelvis_list	pelvis_rotation	pelvis_tx	pelvis_ty	pelvis_tz	hip_flexion_l	hip_adduction_l	hip_rotation_l	hip_flexion_r	hip_adduction_r	hip_rotation_r	knee_angle_l	knee_angle_r	ankle_angle_l	ankle_angle_r	subtalar_angle_l	subtalar_angle_r	tmt_angle_l	tmt_angle_r	mtp_angle_l	mtp_angle_r	lumbar_extension	lumbar_bending	lumbar_rotation	arm_flex_l	arm_add_l	arm_rot_l	arm_flex_r	arm_add_r	arm_rot_r	elbow_flex_l	elbow_flex_r	pro_sup_l	pro_sup_r	glut_med1_l/activation	glut_med2_l/activation	glut_med3_l/activation	glut_min1_l/activation	glut_min2_l/activation	glut_min3_l/activation	semimem_l/activation	semiten_l/activation	bifemlh_l/activation	bifemsh_l/activation	sar_l/activation	add_long_l/activation	add_brev_l/activation	add_mag1_l/activation	add_mag2_l/activation	add_mag3_l/activation	tfl_l/activation	pect_l/activation	grac_l/activation	glut_max1_l/activation	glut_max2_l/activation	glut_max3_l/activation	iliacus_l/activation	psoas_l/activation	quad_fem_l/activation	gem_l/activation	peri_l/activation	rect_fem_l/activation	vas_med_l/activation	vas_int_l/activation	vas_lat_l/activation	med_gas_l/activation	lat_gas_l/activation	soleus_l/activation	tib_post_l/activation	flex_dig_l/activation	flex_hal_l/activation	tib_ant_l/activation	per_brev_l/activation	per_long_l/activation	per_tert_l/activation	ext_dig_l/activation	ext_hal_l/activation	ercspn_l/activation	intobl_l/activation	extobl_l/activation	glut_med1_r/activation	glut_med2_r/activation	glut_med3_r/activation	glut_min1_r/activation	glut_min2_r/activation	glut_min3_r/activation	semimem_r/activation	semiten_r/activation	bifemlh_r/activation	bifemsh_r/activation	sar_r/activation	add_long_r/activation	add_brev_r/activation	add_mag1_r/activation	add_mag2_r/activation	add_mag3_r/activation	tfl_r/activation	pect_r/activation	grac_r/activation	glut_max1_r/activation	glut_max2_r/activation	glut_max3_r/activation	iliacus_r/activation	psoas_r/activation	quad_fem_r/activation	gem_r/activation	peri_r/activation	rect_fem_r/activation	vas_med_r/activation	vas_int_r/activation	vas_lat_r/activation	med_gas_r/activation	lat_gas_r/activation	soleus_r/activation	tib_post_r/activation	flex_dig_r/activation	flex_hal_r/activation	tib_ant_r/activation	per_brev_r/activation	per_long_r/activation	per_tert_r/activation	ext_dig_r/activation	ext_hal_r/activation	ercspn_r/activation	intobl_r/activation	extobl_r/activation	
          0.58425876	         -2.92869541	          2.16923085	         -6.13820817	          0.73032345	          0.91928807	          0.00255511	         29.39210148	          3.27144584	         -2.79376362	        -16.55984728	         -1.42600673	          8.45648634	        -10.98337075	         -9.99607970	          6.17065291	         -3.79281104	         -4.06284171	         11.17685362	         -0.23958386	          4.45953451	          0.88576833	         13.48233490	         -2.01211231	         -0.45465551	          2.22426090	         -6.87814752	        -13.46294162	          5.16823697	          4.62442194	        -13.45577128	         15.79606759	         17.37267828	         39.93425910	         86.51662706	         86.51662706	          0.05973764	          0.05973767	          0.05000070	          0.05973793	          0.05973786	          0.05973660	          0.16504838	          0.09565236	          0.20763667	          0.06074374	          0.05000066	          0.17149059	          0.32590731	          0.10253125	          0.22089633	          0.10983628	          0.05000058	          0.06238536	          0.15567257	          0.05001704	          0.06237743	          0.06619895	          0.05973811	          0.05770921	          0.36948401	          0.29696857	          0.13279764	          0.05000632	          0.12612487	          0.12344574	          0.11236629	          0.06918751	          0.07167024	          0.06283280	          0.05000016	          0.05981172	          0.05000119	          0.49457663	          0.26296585	          0.16510009	          0.15464122	          0.47051359	          0.24468509	          0.05000030	          0.11357672	          0.09953439	          0.22634228	          0.09621346	          0.06104944	          0.27823679	          0.18737345	          0.10440251	          0.05000445	          0.05000058	          0.05000041	          0.05000161	          0.10486935	          0.08568349	          0.07410153	          0.05000559	          0.05001198	          0.05000225	          0.28887336	          0.09681016	          0.05001145	          0.05000529	          0.05000283	          0.05000287	          0.40950907	          0.55676589	          0.05000089	          0.05000300	          0.05003574	          0.29932190	          0.07026775	          0.08694301	          0.10777421	          0.23892197	          0.31645600	          0.27026091	          0.19685872	          0.17602776	          0.23703423	          0.05000008	          0.05971804	          0.12175162	          0.05000053	          0.05000014	          0.05000048	          0.05000008	          0.05002625	          0.08328648	
          0.59594394	         -2.93012220	          2.25185167	         -6.41585851	          0.74837217	          0.91837248	          0.00237380	         28.70657673	          3.68125670	         -2.57844235	        -16.66094148	         -1.77225475	          8.31118192	        -11.40111368	        -11.46433032	          5.46779828	         -4.40289958	         -4.47244975	         12.34504516	         -0.33823262	          3.07811532	          0.86856313	         15.76383969	         -1.78562926	         -0.65100314	          2.31313119	         -7.83048530	        -13.45031551	          5.03009685	          4.25130710	        -13.46958085	         16.12545213	         16.96673030	         41.11555886	         86.51662706	         86.51662706	          0.05000005	          0.05000017	          0.12594046	          0.05000030	          0.05000027	          0.05000025	          0.13814516	          0.08006060	          0.17379061	          0.05084245	          0.05975507	          0.14353684	          0.31339712	          0.34386801	          0.22175948	          0.11014717	          0.05000157	          0.07153914	          0.15429944	          0.06376371	          0.10992201	          0.12615417	          0.05000071	          0.05000498	          0.58424785	          0.24856080	          0.11115096	          0.05973816	          0.12604442	          0.12984328	          0.11044747	          0.06697807	          0.07136662	          0.05994914	          0.05973691	          0.05006268	          0.05972390	          0.51130949	          0.33258882	          0.21219194	          0.12943392	          0.44339754	          0.20479999	          0.05000002	          0.09506296	          0.08330963	          0.18944710	          0.08053017	          0.05110616	          0.23288256	          0.15683054	          0.08738441	          0.05002589	          0.05001862	          0.05004474	          0.05000039	          0.08777549	          0.20126586	          0.06202999	          0.12706299	          0.05974473	          0.05974169	          0.24178530	          0.08105174	          0.05973474	          0.05126804	          0.05972937	          0.05973847	          0.34275648	          0.52160403	          0.05973857	          0.05973980	          0.05000167	          0.25053044	          0.17374497	          0.17374486	          0.17374490	          0.19997607	          0.26487155	          0.22620654	          0.16476949	          0.14733432	          0.19839627	          0.07075379	          0.05000054	          0.10432252	          0.05000083	          0.08682423	          0.05000281	          0.06777837	          0.07137176	          0.07137213	
          0.60762911	         -2.92688156	          2.34346146	         -6.65674138	          0.76672248	          0.91734054	          0.00222605	         27.88026858	          3.96823022	         -2.33293616	        -16.74216475	         -2.11828206	          8.14464346	        -11.90606581	        -12.96654233	          4.90789561	         -5.06222760	         -4.90671594	         13.47046923	         -0.47502265	          1.58811381	          0.96425331	         17.95925234	         -1.53820975	         -0.86460929	          2.38892302	         -8.79415130	        -13.45168092	          4.95979489	          3.79730051	        -13.48194238	         16.37791929	         16.58122048	         42.27520475	         86.51662706	         86.51662706	          0.25991081	          0.28060128	          0.33861964	          0.46598856	          0.28739047	          0.23741350	          0.12288902	          0.07953132	          0.14641396	          0.06317486	          0.05001553	          0.12013949	          0.26231146	          0.28781558	          0.18561268	          0.14337277	          0.05000087	          0.05988020	          0.12914909	          0.13842057	          0.13890767	          0.10560302	          0.05562718	          0.05000124	          0.48901159	          0.20804410	          0.22783688	          0.05000059	          0.10549885	          0.10867853	          0.09244424	          0.05606028	          0.05973354	          0.05017709	          0.05000020	          0.05000092	          0.05000114	          0.57541780	          0.34024035	          0.17760355	          0.43282048	          0.52238040	          0.17144798	          0.06550175	          0.10916597	          0.06972963	          0.34179957	          0.06740356	          0.05000041	          0.34639011	          0.13126746	          0.07314080	          0.05000374	          0.05000046	          0.05000036	          0.05000842	          0.07710318	          0.16845826	          0.05191903	          0.10635107	          0.05000661	          0.05000377	          0.20237434	          0.06784759	          0.05000255	          0.05000375	          0.05000174	          0.05000147	          0.28688509	          0.49613514	          0.05000095	          0.05000293	          0.05000145	          0.20969230	          0.14542358	          0.14542350	          0.14542351	          0.16737862	          0.22169572	          0.18933333	          0.13791101	          0.12331808	          0.16605652	          0.14352621	          0.12330515	          0.12204621	          0.18985272	          0.16267493	          0.05000715	          0.06581190	          0.05973768	          0.05973802	
          0.61931429	         -2.92124587	          2.43234209	         -6.85858765	          0.78509952	          0.91623169	          0.00205024	         27.02538840	          4.22731850	         -2.09071839	        -16.74473606	         -2.44880068	          7.98024389	        -12.39262491	        -14.59464614	          4.44215609	         -5.77674517	         -5.34895426	         14.54731878	         -0.39008764	          0.17024047	          0.99076625	         19.72950401	         -1.29845838	         -1.08049678	          2.45281337	         -9.71419457	        -13.45751846	          4.95938102	          3.31326251	        -13.50481231	         16.58680863	         16.19132113	         43.38768032	         86.51662706	         86.51662706	          0.37147967	          0.38154450	          0.40366242	          0.39002966	          0.24054633	          0.24907736	          0.10285955	          0.08829575	          0.12254799	          0.05287800	          0.05000235	          0.10055602	          0.21955304	          0.24090032	          0.15535880	          0.16288675	          0.05000137	          0.05012055	          0.10809791	          0.24676677	          0.19901727	          0.15815484	          0.05000023	          0.05000031	          0.40929954	          0.17413176	          0.19069876	          0.05000029	          0.13647626	          0.14546320	          0.11425850	          0.05000011	          0.05000021	          0.05000004	          0.05000012	          0.05000038	          0.05000042	          0.64544239	          0.31045121	          0.16276832	          0.60382843	          0.56427030	          0.32264964	          0.07692888	          0.09137119	          0.05836328	          0.28608420	          0.05641667	          0.05000081	          0.28992648	          0.10987025	          0.06121869	          0.05000491	          0.05000060	          0.05000082	          0.05000019	          0.06453536	          0.14102010	          0.08256939	          0.15018694	          0.08093965	          0.14909915	          0.16938624	          0.05679203	          0.05000132	          0.05004579	          0.05004247	          0.05008022	          0.24012096	          0.42703800	          0.05000145	          0.05000740	          0.05000125	          0.17551105	          0.12171897	          0.12171893	          0.12171892	          0.14009477	          0.18555786	          0.15847071	          0.11543069	          0.10321676	          0.13898844	          0.20607775	          0.12171554	          0.11399328	          0.32232642	          0.22605018	          0.14200471	          0.09076954	          0.05000017	          0.05000036	
